<svg xmlns="http://www.w3.org/2000/svg" version="1.1" xmlns:xlink="http://www.w3.org/1999/xlink" xmlns:svgjs="http://svgjs.dev/svgjs" width="1000" height="1000"><g clip-path="url(#SvgjsClipPath1378)"><rect width="1000" height="1000" fill="#ffffff"></rect><g transform="matrix(5.208333333333333,0,0,5.208333333333333,0,0)"><svg xmlns="http://www.w3.org/2000/svg" version="1.1" xmlns:xlink="http://www.w3.org/1999/xlink" xmlns:svgjs="http://svgjs.dev/svgjs" width="192" height="192"><svg version="1.1" id="Ebene_1" xmlns="http://www.w3.org/2000/svg" xmlns:xlink="http://www.w3.org/1999/xlink" x="0px" y="0px" viewBox="0 0 192 192" style="enable-background:new 0 0 192 192;" xml:space="preserve">
<style type="text/css">
	.st0{fill:#FFFFFF;}
	.st1{fill:#003366;}
</style>
<g id="Ebene_2">
	<rect y="35.5" class="st0" width="192" height="95"></rect>
</g>
<g id="Ebene_2_1_">
	<g>
		<polygon class="st1" points="191.9,103.8 191.9,78.6 177.5,88.8 		"></polygon>
		<path class="st1" d="M22.8,69v-5.4c0,0-1.2-8.4,4.2-15c3.6-4.8,9.6-7.2,17.4-7.2h123.6v39l24-17.2L192,0H0.1v69H22.8z"></path>
		<path class="st1" d="M168.5,97.2v21.6l-4.8,1.2c-0.6,0-4.8,1.2-10.2,1.2c-4.8,0-10.8-1.2-14.4-5.4c-6.6-6.6-6.6-17.4-6.6-21v-6.6
			c0-4.8-3-7.8-7.8-7.8h-12v37.8h-12V67.8h24.6c11.4,0,19.8,8.4,19.8,19.8v6.6c0,5.4,1.2,10.2,3.6,12.6c1.2,1.2,4.8,1.8,7.8,1.2V54
			H44.4c-2.4,0-6,0-7.8,2.4s-1.8,6-1.8,6V69H60v27c0,1.2,0,10.8,9,10.8c3,0,8.4,0,8.4-10.8V69h12v27c0,14.4-7.8,22.8-21,22.8
			S48,107.4,48,96V81H34.8v37.8h-12V81H0v111h191.9v-71.4L168.5,97.2z"></path>
	</g>
</g>
</svg></svg></g></g><defs><clipPath id="SvgjsClipPath1378"><rect width="1000" height="1000" x="0" y="0" rx="0" ry="0"></rect></clipPath></defs></svg>